<svg
    xmlns="http://www.w3.org/2000/svg" width="9.383" height="25" viewBox="0 0 9.383 17.304">
    <g transform="translate(-181.278 0)">
        <path class="vectors" d="M187.246,17.3h-3.024a.414.414,0,0,1-.414-.414v-7.1h-2.116a.414.414,0,0,1-.414-.414V6.446a.414.414,0,0,1,.414-.414h2.116V4.287A3.928,3.928,0,0,1,187.988,0,20.7,20.7,0,0,1,190.3.12a.413.413,0,0,1,.359.41V3.149a.414.414,0,0,1-.414.414l-1.549,0c-.895,0-1.039.3-1.039,1.012V6.033h2.487a.415.415,0,0,1,.41.467l-.377,2.929a.414.414,0,0,1-.41.362h-2.109v7.1A.413.413,0,0,1,187.246,17.3Zm-2.61-.828h2.2v-7.1a.414.414,0,0,1,.414-.414H189.4l.271-2.1h-2.431a.414.414,0,0,1-.414-.414V4.576c0-.789.194-1.84,1.866-1.84h1.136V.9c-.423-.036-1.1-.076-1.846-.076a3.13,3.13,0,0,0-3.352,3.459V6.446a.414.414,0,0,1-.414.414h-2.116v2.1h2.116a.414.414,0,0,1,.414.414Z" transform="translate(0 0)"/>
    </g>
</svg>