<svg
    xmlns="http://www.w3.org/2000/svg" width="25" height="25" viewBox="0 0 14.979 14.979">
    <g transform="translate(0 0)">
        <path class="vectors" d="M1313.489,859.35c2,0,2.237.008,3.027.044a2.814,2.814,0,0,1,3.07,3.07c.036.789.043,1.027.043,3.026s-.007,2.237-.043,3.026a2.814,2.814,0,0,1-3.07,3.07c-.79.036-1.026.044-3.027.044s-2.237-.008-3.026-.044a2.815,2.815,0,0,1-3.07-3.071c-.036-.789-.044-1.026-.044-3.026s.008-2.236.044-3.026c.093-2.014,1.039-2.978,3.07-3.07C1311.253,859.357,1311.49,859.35,1313.489,859.35Zm0-1.35c-2.034,0-2.289.009-3.088.045a4.134,4.134,0,0,0-4.356,4.356c-.037.8-.046,1.054-.046,3.088s.009,2.289.045,3.088a4.134,4.134,0,0,0,4.356,4.356c.8.036,1.054.045,3.088.045s2.289-.009,3.088-.045a4.134,4.134,0,0,0,4.356-4.356c.037-.8.046-1.054.046-3.088s-.009-2.289-.045-3.087a4.133,4.133,0,0,0-4.356-4.356C1315.778,858.009,1315.523,858,1313.489,858Zm0,3.643a3.846,3.846,0,1,0,3.846,3.846A3.846,3.846,0,0,0,1313.489,861.643Zm0,6.342a2.5,2.5,0,1,1,2.5-2.5A2.5,2.5,0,0,1,1313.489,867.986Zm4-7.393a.9.9,0,1,0,.9.9A.9.9,0,0,0,1317.487,860.593Z" transform="translate(-1306 -858)"/>
    </g>
</svg>