<svg xmlns="http://www.w3.org/2000/svg" width="19.067" height="15.498" viewBox="0 0 19.067 15.498"><defs><style>.a{fill:none;stroke:#e6432e;fill-rule:evenodd;}</style></defs><g transform="translate(0.27 0.84)"><path class="a" d="M1384.421,861.676a7.136,7.136,0,0,1-2.053.563,3.581,3.581,0,0,0,1.572-1.977,7.161,7.161,0,0,1-2.27.867,3.577,3.577,0,0,0-6.091,3.259,10.147,10.147,0,0,1-7.366-3.734,3.579,3.579,0,0,0,1.105,4.772,3.561,3.561,0,0,1-1.618-.447,3.577,3.577,0,0,0,2.867,3.55,3.582,3.582,0,0,1-1.614.061,3.577,3.577,0,0,0,3.339,2.482,7.187,7.187,0,0,1-5.292,1.481,10.165,10.165,0,0,0,15.638-9.026A7.281,7.281,0,0,0,1384.421,861.676Z" transform="translate(-1367 -860)"/></g></svg>